# xmcd
#
# Track frame offsets: 
#        150
#        9366
#        18934
#        30423
#        42829
#        55920
#        65320
#        80097
#        92945
#        106888
#        123999
#        134764
#        144319
#        155012
#        168316
#        181985
#        194832
#        211055
#        232313
#        250840
#        266757
#        280970
#        298369
#
# Disc length: 4613 seconds
#
# Revision: 3
# Processed by: cddbd v1.5.2PL0 Copyright (c) Steve Scherf et al.
# Submitted via: ExactAudioCopy v0.95b4
#
DISCID=58120317
DTITLE=Bobby Womack - Anthology Disc 1
DYEAR=2003
DGENRE=R&B
TTITLE0=I'm A Midnight Mover
TTITLE1=Broadway Walk
TTITLE2=What Is This
TTITLE3=I'm In Love
TTITLE4=Somebody Special
TTITLE5=What You Gonna Do (When Your Love Is Gone)
TTITLE6=How I Miss You Baby
TTITLE7=More Than I Can Stand
TTITLE8=I Can't Take It Like A Man
TTITLE9=Laughing And Clowning (Live) - Bobby Womack with Percy Mayfiel
TTITLE9=d
TTITLE10=It's Gonna Rain
TTITLE11=Fly Me To The Moon (In Other Words)
TTITLE12=I Left My Heart In San Francisco
TTITLE13=Arkansas State Prison
TTITLE14=Come L'Amore
TTITLE15=(If You Don't Want My Love) Give It Back
TTITLE16=Thats The Way I Feel About Cha - Bobby Womack and Peace
TTITLE17=Communication
TTITLE18=I Can Understand It
TTITLE19=Woman's Gotta Have It
TTITLE20=Sweet Caroline (Good Times Never Seemed So Good)
TTITLE21=Harry Hippie - Bobby Womack and Peace
TTITLE22=The Preacher - More Than I Can Stand (Live)
EXTD=
EXTT0=
EXTT1=
EXTT2=
EXTT3=
EXTT4=
EXTT5=
EXTT6=
EXTT7=
EXTT8=
EXTT9=
EXTT10=
EXTT11=
EXTT12=
EXTT13=
EXTT14=
EXTT15=
EXTT16=
EXTT17=
EXTT18=
EXTT19=
EXTT20=
EXTT21=
EXTT22=
PLAYORDER=
